<?xml version="1.0" encoding="UTF-8" standalone="no"?>
<svg
   id="svg3270"
   version="1.1"
   height="374.88608"
   width="394.27673"
   xmlns:xlink="http://www.w3.org/1999/xlink"
   xmlns="http://www.w3.org/2000/svg"
   xmlns:svg="http://www.w3.org/2000/svg"
   xmlns:rdf="http://www.w3.org/1999/02/22-rdf-syntax-ns#"
   xmlns:cc="http://creativecommons.org/ns#"
   xmlns:dc="http://purl.org/dc/elements/1.1/">
  <metadata
     id="metadata3440">
    <rdf:RDF>
      <cc:Work
         rdf:about="">
        <dc:format>image/svg+xml</dc:format>
        <dc:type
           rdf:resource="http://purl.org/dc/dcmitype/StillImage" />
        <dc:title>島根県区画図</dc:title>
      </cc:Work>
    </rdf:RDF>
  </metadata>
  <defs
     id="defs3438">
    <defs
       id="defs3400">
      <path
         id="32525" d="m 80,135 v -2 l 5,2 2,-4 5,4 -3,-4 -8,1 2,-4 3,-5 -3,-4 -5,-4 -7,3 2,2 -2,5 -2,-6 -3,1 2,3 -2,-2 -4,3 v 2 l 4,6 -3,2 3,1 -2,9 v 7 l 1,-1 4,-4 1,-2 5,1 -1,-2 3,-3 -3,-3 6,2 z m 13,-13 3,2 1,-6 z" />
      <path id="32526" d="m 22,137 3,4 6,1 9,7 -5,-16 -2,-5 3,-1 2,4 -1,-4 6,-1 -1,-5 3,5 -3,1 1,8 5,4 4,-1 3,2 5,-9 -2,-4 -4,-7 10,-2 6,-5 2,-6 -3,1 -5,-2 -2,3 -7,3 v -3 l -4,-1 -6,1 -2,9 -1,3 -2,-3 -3,2 -3,-3 -5,6 1,4 -8,5 3,2 z" />
      <path
         id="32527"
         d="m 57,164 h 3 v 4 l 3,-1 1,-5 -9,-6 -6,-4 -9,1 2,4 v 7 l 7,1 2,-2 2,2 1,-5 z m -1,1 h 1 v 4 l 2,-4 z" />
      <path id="32528"
         d="m 165,80 2,-15 2,-9 2,-3 -3,-2 -5,-3 v -4 h -2 l 2,-3 -6,-1 -2,-5 -5,1 v -3 l -1,-5 -5,3 1,-3 -3,1 -4,-4 -4,-5 1,3 -4,3 -13,2 -2,1 3,3 -9,4 2,3 h -5 l -2,5 h 4 4 l -5,1 2,4 -8,-5 2,7 -4,8 3,2 3,2 -4,14 3,-1 6,4 4,6 h 8 l -1,6 -4,3 4,1 1,-4 3,2 -2,5 4,-6 v 4 l 6,-2 1,-8 v 5 l 4,2 v -4 l 4,4 2,-2 5,4 6,-1 -1,-8 -4,-5 -6,2 3,-4 6,1 3,-9 1,6 -3,6 z" />
    </defs>
    <defs
       id="defs3278">
      <path
         id="31000"
         d="m 614,208 -3,-6 v -5 l 3,-2 z m 0,-127 h -1 -4 l -6,-1 -11,-2 -14,-5 -14,-11 -3,-6 3,-2 -6,-6 10,-8 -10,2 h -7 l -7,5 -2,3 9,20 v 1 l 1,1 10,8 19,11 4,10 -3,8 4,6 -10,10 -1,13 4,6 v 6 l 3,9 -7,3 h -11 l -9,6 -13,4 -14,8 v 1 6 l 5,-3 5,4 v 5 l 4,10 -13,7 -5,13 2,5 -3,13 -1,2 2,2 7,-4 3,3 14,-3 7,2 2,-4 h 5 l 6,9 8,-6 -1,-7 1,-5 h 4 l 7,2 4,-4 6,1 4,-3 13,-2 z" />
      <path
         id="33000"
         d="m 614,195 -3,2 v 5 l 3,6 z m 0,29 -13,2 -4,3 -6,-1 -4,4 -7,-2 h -4 l -1,5 1,7 -8,6 -1,2 19,19 v 9 l -6,5 1,3 -3,4 4,8 -5,14 3,8 8,8 2,4 -1,1 h 1 l 2,8 6,1 8,10 -1,11 -3,11 2,4 -4,5 4,9 5,13 4,3 1,1 z m 0,192 -3,4 -2,11 5,9 z" />
      <path
         id="34000"
         d="m 303,584 1,-5 -7,-11 -1,5 -14,-1 4,8 -2,4 z m -28,0 v -1 l -7,1 z m -12,0 -1,-3 -2,2 v 1 z m 192,0 3,-9 -4,-3 -4,4 -4,8 z m -15,0 v -2 l -2,2 z m -199,0 11,-12 -5,-11 -5,7 -11,4 -7,12 z m 193,0 1,-5 -3,-1 -2,3 3,3 z m -29,-7 4,2 3,-5 z m -144,0 1,-2 -6,1 z m 175,-3 h 3 l -2,-4 z m 12,-7 -3,5 5,2 2,-7 -3,3 z m 47,4 v 1 z m 33,-2 -2,-10 -13,4 h -4 l 1,-3 -3,2 -6,17 9,4 z m 86,-80 h -6 z m 0,-49 -5,-9 2,-11 3,-4 z m -401,144 1,-2 2,-1 7,-4 1,-4 1,3 4,-3 4,-8 9,-9 3,-10 3,4 4,-1 -5,-3 h 7 l -1,-3 h -4 l 2,-1 6,-1 v -2 l 1,7 4,-2 v -4 l 8,-1 7,2 6,3 4,2 3,-2 7,-2 -1,-4 3,6 8,-1 4,-4 v 1 l 2,1 -2,1 -3,2 2,4 -3,2 1,-2 -3,-3 -3,5 4,2 -3,8 4,7 4,6 -1,11 z m 185,0 -2,-3 -3,3 z m -5,0 1,-4 -3,-7 12,2 1,-1 3,-13 6,-2 h 7 l 4,10 3,-2 7,-2 -2,-4 6,-2 3,-4 6,-1 1,-4 3,5 9,-6 5,2 7,1 3,-3 6,4 12,-2 12,-5 4,-18 -3,-3 3,1 v -2 l 1,3 10,4 10,-5 13,-4 15,-4 4,-5 -1,-5 5,5 -2,-7 9,6 h -3 l 2,5 -5,5 2,4 6,-4 v 3 l 1,4 v -1 h 7 l 6,5 7,-1 1,5 7,-1 6,-6 1,-16 3,-2 V 409 l -1,-1 -4,-3 -5,-13 -4,-9 4,-5 -2,-4 3,-11 1,-11 -8,-10 -6,-1 -2,-8 h -1 l 1,-1 -2,-4 -8,-8 -3,-8 5,-14 -4,-8 3,-4 -1,-3 6,-5 v -9 l -19,-19 1,-2 -6,-9 h -5 l -2,4 -7,-2 -14,3 -3,-3 -7,4 -2,-2 1,-2 -6,-4 h -9 l -11,1 -6,6 -8,-5 -10,-9 -8,8 -6,3 -12,-4 -8,-9 -11,6 -10,12 1,7 -7,3 -8,10 -1,5 -8,5 h 1 l 1,3 -8,3 1,7 -2,2 -2,-3 -7,6 -2,-2 -9,1 -3,8 -14,12 -1,1 8,1 3,4 4,-2 1,4 7,1 4,14 -5,2 -5,-3 -7,8 -10,-4 -6,-1 -1,3 -25,18 -7,-4 -3,2 -19,-1 1,-3 -7,-5 -6,3 2,6 -10,8 -1,-2 -4,-1 v -3 l -5,-3 -12,5 -6,-5 -1,2 -5,8 -6,-3 -1,-6 -8,-4 -3,1 -2,2 1,8 -6,5 -1,9 h -6 l -2,1 -4,5 -3,-1 -17,12 v 3 l 10,3 v 5 l -6,11 -9,18 1,4 4,3 -2,4 v 1 l -3,6 -11,13 -11,3 -2,7 -4,5 9,4 v 6 l 3,4 4,11 -2,8 -3,3 2,4 -1,21 5,-1 1,3 5,3 1,5 2,2 6,-2 -1,11 -1,4 2,2 4,3 -2,5 4,7 z m -107,-26 -2,-3 -9,11 h 3 l 7,1 z m 218,7 4,-5 -3,-8 -6,7 1,4 z m -31,-6 2,6 2,-3 z m 75,-4 -2,-6 -4,1 -3,3 2,-4 -4,-8 h -5 -4 v 5 h -3 l -1,5 6,10 1,5 13,10 3,-7 3,-3 h -5 v -3 l 5,-4 z m -93,1 h 1 l 3,5 1,-2 z m 121,-7 1,-8 -9,5 v 5 z m -286,-2 2,2 v -4 z m 230,1 -4,-8 -5,9 5,9 5,-6 z m 60,-2 5,-1 9,-4 2,-6 h -4 l -2,5 -3,-6 -10,7 z m -284,1 h 1 l 1,6 2,-4 z m 276,-11 1,-5 -6,-1 -1,4 5,5 z m -12,-2 3,-1 -2,-1 z m -30,-3 3,3 h 4 l -2,-6 z m 84,-3 -3,2 h 3 z m -55,-2 v -5 l -7,-2 -16,9 2,9 5,4 6,-2 2,3 v -3 l 2,-8 z m 2,-3 1,1 3,4 3,-3 z" />
      <path
         id="35000"
         d="m 182,584 -4,-7 2,-5 -4,-3 -2,-2 1,-4 1,-11 -6,2 -2,-2 -1,-5 -5,-3 -1,-3 -5,1 1,-21 -2,-4 3,-3 2,-8 -4,-11 h -2 -3 l -8,2 -5,3 -1,8 -6,4 -3,6 6,11 1,1 1,7 -5,1 -8,10 -6,15 -4,-8 -9,-5 h -1 l -6,8 -4,-4 -3,8 -7,1 -9,-3 -1,4 h -4 l -5,-5 -4,-6 -6,-2 1,-7 -3,-2 -1,-5 -1,-6 7,-8 4,-15 h -1 l -11,1 -2,-3 -7,4 -13,-2 -1,-13 2,-4 -6,-1 -1,-7 -4,-4 13,-11 v -14 l 3,1 4,-4 -2,-17 -6,-2 -2,-4 1,-3 1,-6 -6,-9 3,-5 -3,3 -2,1 -3,-2 1,7 -5,2 -4,1 1,2 -1,3 -2,-2 1,-4 -5,-4 -5,-1 -3,4 v 169 z" />
      <path
         id="38000"
         d="m 497,584 1,-1 h -4 l -3,-7 -3,-7 -6,-3 -11,5 3,6 -7,1 -2,4 9,-1 v 3 z m 47,0 -1,-1 v 1 z m 7,0 -1,-2 10,-8 -3,-6 -11,10 1,6 z m -18,0 2,-3 -6,-8 -6,10 v 1 z m 2,-11 2,8 5,2 1,-5 -5,-7 z m -40,-1 z" />
      <path
         id="32201"
         d="m 551,70 -9,-20 2,-3 7,-5 h 7 l 28,-8 -7,-3 -3,2 -1,-3 -5,1 -3,-1 -7,3 1,-2 -9,2 3,-4 h -7 l -1,5 -6,-2 -1,-3 -1,3 1,4 -4,-2 -4,2 -3,-3 -1,4 -6,-1 -3,-6 3,-1 -5,2 -2,-4 -2,-5 h -3 l -3,-3 -3,2 4,4 -2,1 2,4 -9,-2 -1,3 -3,-3 -3,4 4,3 -5,5 -2,-2 -5,3 1,6 -5,-1 h -6 l -2,-2 -1,1 -3,-1 -4,2 -1,6 4,1 -3,4 -11,-1 -5,-1 -3,3 h -3 l 3,19 8,9 -2,4 -18,16 2,8 v 2 l 7,1 2,-4 6,6 1,-4 3,1 h 20 l 2,3 3,-3 v -2 l 13,1 -1,7 7,12 8,-7 16,-11 2,-3 -8,-12 -5,-4 3,-7 h 4 l 6,-1 2,-10 9,-1 3,1 z m -34,-45 1,-3 -3,3 z" />
      <path
         id="32202"
         d="m 264,359 4,-18 -4,-9 h -12 l -5,-6 -8,-6 v -4 l -7,-5 -10,5 v -5 l -4,-12 -4,-2 -4,11 -12,-6 2,-7 -5,-3 -3,3 -5,-2 -3,2 -2,-5 v -2 l -10,5 -3,2 v 5 h -5 l -3,4 -3,4 1,3 2,-2 -2,2 -4,1 2,5 h -3 l -3,9 h -4 l 2,-2 -4,-2 -2,3 -4,4 v -3 l -4,3 3,2 -4,6 -5,6 -9,5 -4,4 -2,7 -7,5 1,-6 -6,9 -5,-1 -1,3 v 3 l 13,5 1,5 3,-1 1,7 4,-1 v 3 l 8,3 8,-3 5,8 7,-3 -1,-5 16,6 8,-6 3,3 3,-1 2,3 17,-12 3,1 4,-5 2,-1 h 6 l 1,-9 6,-5 -1,-8 2,-2 3,-1 8,4 1,6 6,3 5,-8 1,-2 6,5 12,-5 z" />
      <path
         id="32203"
         d="m 409,101 10,-7 34,-8 -8,-9 -3,-19 h -1 l -8,1 h -3 l -6,1 -8,4 -8,3 -1,3 -10,3 -11,2 -4,1 3,1 8,5 -2,3 -6,1 -11,1 -6,-3 v 4 l -3,-3 -4,4 v -3 l -3,2 h -4 v 3 h -6 l -2,6 3,1 9,3 5,4 1,5 -4,25 -11,16 -9,5 -10,3 2,5 v 12 l 17,12 4,1 -1,-2 3,-3 3,3 3,14 3,-1 9,5 5,-3 h 9 v -6 l 8,-7 v -11 l 10,-9 -3,-5 4,-9 6,-4 v -4 l 10,1 -2,-8 10,-3 -1,-7 -25,-4 -3,-17 z" />
      <path
         id="32204"
         d="m 69,448 3,-4 2,5 10,3 v -6 l 6,-6 h 8 v 6 l 6,1 -2,6 3,-1 1,3 -7,7 v 9 l 7,6 6,1 5,-3 4,16 2,3 7,-1 -1,9 5,-1 3,-6 9,-3 5,3 h 3 2 l -3,-4 v -6 l -9,-4 4,-5 2,-7 11,-3 11,-13 3,-6 v -1 l 2,-4 -4,-3 -1,-4 9,-18 6,-11 v -5 l -10,-3 v -3 l -2,-3 -3,1 -3,-3 -8,6 -16,-6 1,5 -7,3 -5,-8 -8,3 -8,-3 v -3 l -4,1 -1,-7 -3,1 -1,-5 -13,-5 -5,1 -4,1 1,7 -6,10 -16,10 -27,7 h -6 l -7,-3 -3,5 6,9 -1,6 -1,3 2,4 6,2 2,17 4,5 4,-3 5,-1 1,-5 4,1 9,-3 z" />
      <path
         id="32205"
         d="m 361,201 -3,-14 -3,-3 -3,3 1,2 -4,-1 -17,-12 v -12 l -2,-5 -3,2 -5,3 -6,2 -2,5 -5,2 -5,4 -4,-1 v 3 l -5,3 -11,9 -8,2 v 4 l -3,3 -3,7 -4,4 1,5 -7,5 -2,3 -5,3 -3,3 2,4 -3,-1 -5,3 v 5 l -3,5 3,5 1,-3 5,4 5,2 3,13 7,6 8,-8 5,-1 3,2 2,-3 7,3 v -5 l 5,-3 4,-9 v -1 l -3,-7 h 3 l -2,-3 3,-5 12,-2 6,-6 3,-4 5,3 9,-1 3,3 2,-2 4,4 -1,7 6,-3 5,2 5,1 4,-12 h -6 l -8,-7 z" />
      <path
         id="32206"
         d="m 501,168 6,-1 5,5 -1,6 1,4 6,2 10,-3 v -1 l 14,-8 13,-4 9,-6 h 11 l 7,-3 -3,-9 v -6 l -4,-6 1,-13 10,-10 -4,-6 3,-8 -4,-10 -19,-11 -10,-8 -1,-1 v -1 l -13,9 2,12 -3,8 v 4 l -4,6 -8,4 h -1 l -2,3 -16,11 -8,7 -2,11 4,19 z" />
      <path
         id="32207"
         d="m 293,294 -5,-6 -4,3 -5,-9 -4,2 -9,-4 -1,-7 -7,-6 -3,-13 -5,-2 -5,-4 -1,3 -3,-5 -7,5 -14,5 -7,4 v -3 l -13,15 -15,10 -3,6 v 2 l 2,5 3,-2 5,2 3,-3 5,3 -2,7 12,6 4,-11 4,2 4,12 v 5 l 10,-5 7,5 v -5 l 9,-4 14,-10 18,6 5,-8 z" />
      <path
         id="32209"
         d="m 373,209 4,4 1,8 15,4 4,1 7,-8 h 6 l 2,11 h 5 l 5,-3 6,8 11,-6 2,-7 4,-3 -4,-4 2,-5 7,1 9,-5 -3,-5 3,-17 5,-2 -2,-12 h 16 l 23,-1 -1,-4 -4,-19 2,-11 -7,-12 1,-7 -13,-1 v 2 l -3,3 -2,-3 h -20 l -3,-1 -1,4 -6,-6 -2,4 -7,-1 1,3 -5,2 -2,9 1,7 -10,3 2,8 -10,-1 v 4 l -6,4 -4,9 3,5 -10,9 v 11 l -8,7 v 6 h -9 l -5,3 z" />
      <path
         id="32304"
         d="m 525,113 8,-4 4,-6 v -4 l 3,-8 -2,-12 -3,-1 -9,1 -2,10 -6,1 h -4 l -3,7 5,4 8,12 z" />
      <path
         id="32343"
         d="m 443,209 -2,5 4,4 -4,3 -2,7 8,9 12,4 6,-3 8,-8 10,9 8,5 6,-6 11,-1 h 9 l 6,4 3,-13 -2,-5 5,-13 13,-7 -4,-10 v -5 l -5,-4 -5,3 v -6 l -10,3 -6,-2 -1,-4 1,-6 -5,-5 -6,1 -23,1 h -16 l 2,12 -5,2 -3,17 3,5 -9,5 z" />
      <path
         id="32386"
         d="m 418,246 10,-12 -6,-8 -5,3 h -5 l -2,-11 h -6 l -7,8 -4,-1 -15,-4 -1,-8 -4,-4 v -4 l -9,-5 -3,1 -12,15 8,7 h 6 l -4,12 8,8 3,-1 5,7 5,1 -3,6 2,7 -7,-3 -4,2 -7,7 v 9 l -3,-1 -2,2 3,2 -1,5 10,1 v 6 l 9,-1 2,2 7,-6 2,3 2,-2 -1,-7 8,-3 -1,-3 h -1 l 8,-5 1,-5 8,-10 7,-3 z" />
      <path
         id="32401"
         d="m 435,116 v -2 l -2,-8 18,-16 2,-4 -34,8 -10,7 -8,8 3,17 25,4 2,-9 5,-2 z" />
      <path
         id="32441"
         d="m 329,286 -2,-11 -12,3 -6,-12 -7,-8 3,-7 -6,-3 v 1 l -4,9 -5,3 v 5 l -7,-3 -2,3 -3,-2 -5,1 -8,8 1,7 9,4 4,-2 5,9 4,-3 5,6 5,1 3,-2 9,4 1,-6 7,-2 4,1 1,4 3,-1 z" />
      <path
         id="32448"
         d="m 368,293 v -6 l -10,-1 1,-5 -3,-2 2,-2 3,1 v -9 l 7,-7 4,-2 7,3 -2,-7 3,-6 -5,-1 -5,-7 -3,1 -8,-8 -5,-1 -5,-2 -6,3 1,-7 -4,-4 -2,2 -3,-3 -9,1 -5,-3 -3,4 -6,6 -12,2 -3,5 2,3 h -3 l 3,7 6,3 -3,7 7,8 6,12 12,-3 2,11 2,2 v 8 l 5,3 v 4 l 7,-2 5,4 3,8 14,-12 z" />
      <path
         id="32449"
         d="m 372,338 5,-2 -4,-14 -7,-1 -1,-4 -4,2 -3,-4 -8,-1 1,-1 -3,-8 -5,-4 -7,2 v -4 l -5,-3 v -8 l -2,-2 -3,7 -3,1 -1,-4 -4,-1 -7,2 -1,6 -9,-4 -3,2 -5,-1 -8,1 -5,8 -18,-6 -14,10 -9,4 v 5 4 l 8,6 5,6 h 12 l 4,9 -4,18 v 3 l 4,1 1,2 10,-8 -2,-6 6,-3 7,5 -1,3 19,1 3,-2 7,4 25,-18 1,-3 6,1 10,4 7,-8 z" />
      <path
         id="32501"
         d="m 103,492 8,5 10,-6 -4,-16 -5,3 -6,-1 -7,-6 v -9 l 7,-7 -1,-3 -3,1 2,-6 -6,-1 v -6 h -8 l -6,6 v 6 l -10,-3 -2,-5 -3,4 -5,-3 -9,3 -4,-1 -1,5 -5,1 -4,3 -4,-5 -4,4 -3,-1 v 14 l -13,11 4,4 1,7 6,1 -2,4 1,13 13,2 7,-4 2,3 11,-1 h 1 l 2,-5 10,-3 4,-8 h 2 l 4,-4 11,3 3,3 z" />
      <path
         id="32505"
         d="m 50,531 1,6 1,5 3,2 -1,7 6,2 4,6 5,5 h 4 l 1,-4 9,3 7,-1 3,-8 4,4 6,-8 h 1 l 9,5 4,8 6,-15 8,-10 5,-1 -1,-7 -1,-1 -6,-11 3,-6 6,-4 1,-8 5,-3 8,-2 -5,-3 -9,3 -3,6 -5,1 1,-9 -7,1 -2,-3 -10,6 -8,-5 -6,2 -3,-3 -11,-3 -4,4 h -2 l -4,8 -10,3 -2,5 -4,15 z" />
    </defs>
  </defs>
  <title
     id="title3272">島根県区画図</title>
  <g
     style="stroke:#000000;stroke-width:0.309427;stroke-linejoin:round;stroke-miterlimit:4;stroke-dasharray:none"
     id="g3306"
     transform="scale(0.64635532)">
    <a
       id="a3332"
       style="fill:#f6bad3;fill-opacity:1;stroke-width:0.309427;stroke-miterlimit:4;stroke-dasharray:none">
      <use
         height="652"
         width="610"
         y="0"
         x="0"
         xlink:href="#32202"
         id="use3334"
         style="fill:#f6bad3;fill-opacity:1;stroke-width:0.309427;stroke-miterlimit:4;stroke-dasharray:none" />
    </a>
    <a
       id="a3340"
       style="fill:#f6bad3;fill-opacity:1;stroke-width:0.309427;stroke-miterlimit:4;stroke-dasharray:none">
      <use
         height="652"
         width="610"
         y="0"
         x="0"
         xlink:href="#32204"
         id="use3342"
         style="fill:#f6bad3;fill-opacity:1;stroke-width:0.309427;stroke-miterlimit:4;stroke-dasharray:none" />
    </a>
    <a
       id="a3344"
       style="fill:#f6bad3;fill-opacity:1;stroke-width:0.309427;stroke-miterlimit:4;stroke-dasharray:none">
      <use
         height="652"
         width="610"
         y="0"
         x="0"
         xlink:href="#32205"
         id="use3346"
         style="fill:#f6bad3;fill-opacity:1;stroke-width:0.309427;stroke-miterlimit:4;stroke-dasharray:none" />
    </a>
    <a
       id="a3348"
       style="fill:#f6bad3;fill-opacity:1;stroke-width:0.309427;stroke-miterlimit:4;stroke-dasharray:none">
      <use
         height="652"
         width="610"
         y="0"
         x="0"
         xlink:href="#32206"
         id="use3350"
         style="fill:#f6bad3;fill-opacity:1;stroke-width:0.309427;stroke-miterlimit:4;stroke-dasharray:none" />
    </a>
    <a
       id="a3352"
       style="fill:#f6bad3;fill-opacity:1;stroke-width:0.309427;stroke-miterlimit:4;stroke-dasharray:none">
      <use
         height="652"
         width="610"
         y="0"
         x="0"
         xlink:href="#32207"
         id="use3354"
         style="fill:#f6bad3;fill-opacity:1;stroke-width:0.309427;stroke-miterlimit:4;stroke-dasharray:none" />
    </a>
    <a
       id="a3356"
       style="fill:#f6bad3;fill-opacity:1;stroke-width:0.309427;stroke-miterlimit:4;stroke-dasharray:none">
      <use
         height="652"
         width="610"
         y="0"
         x="0"
         xlink:href="#32209"
         id="use3358"
         style="fill:#f6bad3;fill-opacity:1;stroke-width:0.309427;stroke-miterlimit:4;stroke-dasharray:none" />
    </a>
    <a
       id="a3364"
       style="fill:#ece3b4;fill-opacity:1;stroke-width:0.309427;stroke-miterlimit:4;stroke-dasharray:none">
      <use
         height="652"
         width="610"
         y="0"
         x="0"
         xlink:href="#32343"
         id="use3366"
         style="fill:#ece3b4;fill-opacity:1;stroke-width:0.309427;stroke-miterlimit:4;stroke-dasharray:none" />
    </a>
    <a
       id="a3368"
       style="fill:#ece3b4;fill-opacity:1;stroke-width:0.309427;stroke-miterlimit:4;stroke-dasharray:none">
      <use
         height="652"
         width="610"
         y="0"
         x="0"
         xlink:href="#32386"
         id="use3370"
         style="fill:#ece3b4;fill-opacity:1;stroke-width:0.309427;stroke-miterlimit:4;stroke-dasharray:none" />
    </a>
    <a
       id="a3376"
       style="fill:#ece3b4;fill-opacity:1;stroke-width:0.309427;stroke-miterlimit:4;stroke-dasharray:none">
      <use
         height="652"
         width="610"
         y="0"
         x="0"
         xlink:href="#32441"
         id="use3378"
         style="fill:#ece3b4;fill-opacity:1;stroke-width:0.309427;stroke-miterlimit:4;stroke-dasharray:none" />
    </a>
    <a
       id="a3380"
       style="fill:#ece3b4;fill-opacity:1;stroke-width:0.309427;stroke-miterlimit:4;stroke-dasharray:none">
      <use
         height="652"
         width="610"
         y="0"
         x="0"
         xlink:href="#32448"
         id="use3382"
         style="fill:#ece3b4;fill-opacity:1;stroke-width:0.309427;stroke-miterlimit:4;stroke-dasharray:none" />
    </a>
    <a
       id="a3384"
       style="fill:#ece3b4;fill-opacity:1;stroke-width:0.309427;stroke-miterlimit:4;stroke-dasharray:none">
      <use
         height="652"
         width="610"
         y="0"
         x="0"
         xlink:href="#32449"
         id="use3386"
         style="fill:#ece3b4;fill-opacity:1;stroke-width:0.309427;stroke-miterlimit:4;stroke-dasharray:none" />
    </a>
    <a
       id="a3388"
       style="fill:#ece3b4;fill-opacity:1;stroke-width:0.309427;stroke-miterlimit:4;stroke-dasharray:none">
      <use
         height="652"
         width="610"
         y="0"
         x="0"
         xlink:href="#32501"
         id="use3390"
         style="fill:#ece3b4;fill-opacity:1;stroke-width:0.309427;stroke-miterlimit:4;stroke-dasharray:none" />
    </a>
    <a
       id="a3392"
       style="fill:#ece3b4;fill-opacity:1;stroke-width:0.309427;stroke-miterlimit:4;stroke-dasharray:none">
      <use
         height="652"
         width="610"
         y="0"
         x="0"
         xlink:href="#32505"
         id="use3394"
         style="fill:#ece3b4;fill-opacity:1;stroke-width:0.309427;stroke-miterlimit:4;stroke-dasharray:none" />
    </a>
    <a
       id="a7071"
       style="stroke-width:0.309427;stroke-miterlimit:4;stroke-dasharray:none">
      <g
         id="g7065"
         style="stroke-width:0.309427;stroke-miterlimit:4;stroke-dasharray:none">
        <a
           id="a3328"
           style="fill:#f6bad3;fill-opacity:1;stroke-width:0.309427;stroke-miterlimit:4;stroke-dasharray:none">
          <use
             height="652"
             width="610"
             y="0"
             x="0"
             xlink:href="#32201"
             id="use3330"
             style="fill:#f6bad3;fill-opacity:1;stroke-width:0.309427;stroke-miterlimit:4;stroke-dasharray:none" />
        </a>
        <use
           height="652"
           width="610"
           y="0"
           x="0"
           style="fill:#f6bad3;fill-opacity:1;stroke:#000000;stroke-width:0.309427;stroke-miterlimit:4;stroke-dasharray:none;stroke-opacity:1"
           id="use3362"
           xlink:href="#32304" />
        <rect
           style="fill:#f6bad3;fill-opacity:1;fill-rule:nonzero;stroke:none;stroke-width:0.309427;stroke-miterlimit:4;stroke-dasharray:none"
           id="rect7062"
           width="14.614104"
           height="28.400995"
           x="510.80429"
           y="84.255852" />
      </g>
    </a>
    <a
       style="stroke-width:0.309427;stroke-miterlimit:4;stroke-dasharray:none"
       transform="translate(0,0.85885192)"
       id="a3342">
      <g
         style="stroke-width:0.309427;stroke-miterlimit:4;stroke-dasharray:none"
         id="g3332">
        <a
           id="a7038"
           style="stroke:#000000;stroke-width:0.309427;stroke-linejoin:round;stroke-miterlimit:4;stroke-dasharray:none"
           transform="translate(0,-0.858852)">
          <g
             style="stroke-width:0.309427;stroke-miterlimit:4;stroke-dasharray:none"
             id="g7031">
            <a
               id="a3336"
               style="fill:#f6bad3;fill-opacity:1;stroke-width:0.309427;stroke-miterlimit:4;stroke-dasharray:none">
              <use
                 height="652"
                 width="610"
                 y="0"
                 x="0"
                 xlink:href="#32203"
                 id="use3338"
                 style="fill:#f6bad3;fill-opacity:1;stroke-width:0.309427;stroke-miterlimit:4;stroke-dasharray:none" />
            </a>
            <a
               id="a3372"
               style="fill:#f6bad3;fill-opacity:1;stroke-width:0.309427;stroke-miterlimit:4;stroke-dasharray:none">
              <use
                 height="652"
                 width="610"
                 y="0"
                 x="0"
                 xlink:href="#32401"
                 id="use3374"
                 style="fill:#f6bad3;fill-opacity:1;stroke-width:0.309427;stroke-miterlimit:4;stroke-dasharray:none" />
            </a>
            <rect
               style="fill:#f6bad3;fill-opacity:1;fill-rule:nonzero;stroke:none;stroke-width:0.309427;stroke-miterlimit:4;stroke-dasharray:none"
               id="rect7021"
               width="30.793442"
               height="31.475859"
               x="396.58771"
               y="104.22111" />
          </g>
        </a>
        <rect
           y="89.610054"
           x="404.57535"
           height="15.013158"
           width="28.563993"
           id="rect3323"
           style="fill:#f6bad3;fill-opacity:1;fill-rule:nonzero;stroke:none;stroke-width:0.309427;stroke-miterlimit:4;stroke-dasharray:none" />
      </g>
    </a>
  </g>
  <path
     d="m 341.92197,30.3787 h 3.23177 l 1.93907,2.585421 -0.64636,-2.585421 2.58542,2.585421 2.58543,-1.939066 v 4.524488 l 5.81719,5.817197 -0.64635,2.585422 3.23178,0.646355 11.63439,12.280751 6.46355,1.292711 v 5.817198 h -5.81719 l -0.64636,-1.939066 5.17084,1.29271 -3.23177,-4.524487 -1.93907,0.646355 -5.8172,-1.939066 -1.29271,1.939066 -1.29271,-3.878132 -7.10991,-3.231776 -1.29271,3.231776 -1.29271,-1.29271 -5.8172,4.524487 -4.52448,-3.878132 -7.75627,-1.29271 -0.64635,-3.231777 3.87813,-3.878132 -2.58542,-2.585421 v -7.109909 l 3.87813,-1.939066 1.29271,-3.878132 7.75626,5.817198 -1.93906,2.585422 -4.52449,-0.646356 v 4.524487 l -3.23178,2.585422 -2.58542,-1.939066 0.64636,-1.939066 -0.64636,1.939066 1.93907,1.939066 4.52449,-3.231777 5.17084,1.939066 v -6.463553 l 3.23178,-0.646355 -1.29271,-2.585422 -2.58543,0.646356 -5.81719,-5.170843 -1.29271,1.939066 z m 10.98804,7.109909 3.23177,5.170842 0.64636,-1.292711 z m -1.93907,-7.109909 4.52449,-3.231776 h 5.8172 z m -59.46469,18.097949 9.04898,-2.585421 14.86617,4.524487 3.23177,-1.292711 v 1.939066 l -3.87813,6.463553 -20.68337,3.878132 -7.75626,4.524488 -1.93907,-1.292711 0.64636,-1.939066 -2.58542,0.646355 -4.52449,-9.695329 z m -53.64749,37.488608 1.29271,1.292711 -2.58542,2.585421 -0.64636,-2.585421 z M 94.367877,248.8468 v 3.87813 l -1.939066,-1.29271 z m 151.893503,-95.66059 3.87813,1.29271 -4.52449,0.64636 3.23178,3.23178 -1.93907,1.29271 v -2.58542 h -2.58542 z"
     id="path3396"
     style="fill:#eeeeee;fill-opacity:1;stroke:#000000;stroke-width:0.129271;stroke-linejoin:round" />
  <g
     style="stroke:#000000;stroke-width:0.309427;stroke-linejoin:round;stroke-miterlimit:4;stroke-dasharray:none"
     id="g3410"
     transform="scale(0.64635532)">
    <a
       id="a3412"
       style="fill:#ece3b4;fill-opacity:1;stroke-width:0.309427;stroke-miterlimit:4;stroke-dasharray:none">
      <use
         height="652"
         width="610"
         y="0"
         x="0"
         xlink:href="#32525"
         id="use3414"
         style="fill:#ece3b4;fill-opacity:1;stroke-width:0.309427;stroke-miterlimit:4;stroke-dasharray:none" />
    </a>
    <a
       id="a3416"
       style="fill:#ece3b4;fill-opacity:1;stroke-width:0.309427;stroke-miterlimit:4;stroke-dasharray:none">
      <use
         height="652"
         width="610"
         y="0"
         x="0"
         xlink:href="#32526"
         id="use3418"
         style="fill:#ece3b4;fill-opacity:1;stroke-width:0.309427;stroke-miterlimit:4;stroke-dasharray:none" />
    </a>
    <a
       id="a3420"
       style="fill:#b6f2dc;fill-opacity:1;stroke-width:0.309427;stroke-miterlimit:4;stroke-dasharray:none">
      <use
         height="652"
         width="610"
         y="0"
         x="0"
         xlink:href="#32527"
         id="use3422"
         style="fill:#b6f2dc;fill-opacity:1;stroke-width:0.309427;stroke-miterlimit:4;stroke-dasharray:none" />
    </a>
    <a
       id="a3424"
       style="fill:#ece3b4;fill-opacity:1;stroke-width:0.309427;stroke-miterlimit:4;stroke-dasharray:none">
      <use
         height="652"
         width="610"
         y="0"
         x="0"
         xlink:href="#32528"
         id="use3426"
         style="fill:#ece3b4;fill-opacity:1;stroke-width:0.309427;stroke-miterlimit:4;stroke-dasharray:none" />
    </a>
  </g>
  <path
     d="m 341.8813,30.394072 h 3.23177 l 1.93907,2.585422 -0.64636,-2.585422 2.58543,2.585422 2.58542,-1.939066 v 4.524487 l 5.8172,5.817198 -0.64636,2.585421 3.23178,0.646355 11.63439,12.280752 6.46356,1.292711 v 5.817197 H 372.26 l -0.64636,-1.939065 5.17084,1.29271 -3.23177,-4.524487 -1.93907,0.646355 -5.8172,-1.939066 -1.29271,1.939066 -1.29271,-3.878132 -7.10991,-3.231777 -1.29271,3.231777 -1.29271,-1.292711 -5.81719,4.524488 -4.52449,-3.878133 -7.75627,-1.29271 -0.64635,-3.231777 3.87813,-3.878132 -2.58542,-2.585421 v -7.109908 l 3.87813,-1.939066 1.29271,-3.878132 7.75627,5.817198 -1.93907,2.585421 -4.52449,-0.646356 v 4.524488 l -3.23177,2.585421 -2.58543,-1.939066 0.64636,-1.939066 -0.64636,1.939066 1.93907,1.939066 4.52449,-3.231777 5.17084,1.939066 v -6.463553 l 3.23178,-0.646355 -1.29271,-2.585421 -2.58542,0.646355 -5.8172,-5.170843 -1.29271,1.939066 z m 10.98804,7.109909 3.23177,5.170842 0.64636,-1.29271 z m -1.93907,-7.109909 4.52449,-3.231776 h 5.8172 z m -59.46469,18.097949 9.04898,-2.585421 14.86617,4.524487 3.23178,-1.29271 v 1.939066 l -3.87814,6.463553 -20.68337,3.878132 -7.75626,4.524486 -1.93907,-1.29271 0.64636,-1.939065 -2.58542,0.646355 -4.52449,-9.69533 z m -53.64749,37.488608 1.29271,1.292711 -2.58542,2.585421 -0.64635,-2.585421 z M 94.327208,248.86217 v 3.87813 l -1.939066,-1.29271 z m 151.893502,-95.66059 3.87813,1.29271 -4.52448,0.64636 3.23177,3.23178 -1.93906,1.29271 v -2.58543 h -2.58543 z"
     id="path3396-1"
     style="fill:none;fill-opacity:1;stroke:#000000;stroke-width:0.2;stroke-linejoin:round;stroke-miterlimit:4;stroke-dasharray:none" />
</svg>
